<svg width="49" height="40" viewBox="0 0 49 40" fill="none" xmlns="http://www.w3.org/2000/svg">
<g clip-path="url(#clip0_1_244)">
<g clip-path="url(#clip1_1_244)">
<g clip-path="url(#clip2_1_244)">
<path d="M48.5113 0.977417V10.6956H45.9649C43.079 10.7798 41.0419 11.495 39.8537 12.8412C38.7502 14.1033 38.1985 15.8703 38.1985 18.142V22.4332H46.6015V39.9765H28.013V17.3848C28.013 11.4109 29.4136 7.24588 32.2145 4.88995C35.0156 2.44987 38.7927 1.18777 43.5459 1.10363L48.5113 0.977417ZM21.0106 0.977417V10.6956H18.4643C15.5783 10.7798 13.5413 11.495 12.3529 12.8412C11.2495 14.1033 10.6979 15.8703 10.6979 18.142V22.4332H19.1009V39.9765H0.51239V17.3848C0.51239 11.4109 1.91289 7.24588 4.71388 4.88995C7.51488 2.44987 11.2919 1.18777 16.0452 1.10363L21.0106 0.977417Z" fill="#BC8CFF"/>
</g>
</g>
</g>
<defs>
<clipPath id="clip0_1_244">
<rect width="47.9989" height="38.9991" fill="white" transform="translate(0.51239 0.977905)"/>
</clipPath>
<clipPath id="clip1_1_244">
<rect width="47.9989" height="38.9991" fill="white" transform="translate(0.51239 0.977905)"/>
</clipPath>
<clipPath id="clip2_1_244">
<rect width="47.9989" height="39.9991" fill="white" transform="translate(0.51239 0.477661)"/>
</clipPath>
</defs>
</svg>
